<svg xmlns="http://www.w3.org/2000/svg"  viewBox="0 0 80 80" width="80px" height="80px"><path d="M 18 10 C 13.594 10 10 13.594 10 18 L 10 62 C 10 66.406 13.594 70 18 70 L 62 70 C 66.406 70 70 66.406 70 62 L 70 18 C 70 13.594 66.406 10 62 10 L 18 10 z M 18 12 L 62 12 C 65.326 12 68 14.674 68 18 L 68 62 C 68 65.326 65.326 68 62 68 L 18 68 C 14.674 68 12 65.326 12 62 L 12 18 C 12 14.674 14.674 12 18 12 z M 18 15 C 17.862 15 17.730953 15.0275 17.611328 15.078125 C 17.491703 15.12875 17.383469 15.202469 17.292969 15.292969 C 17.111969 15.473969 17 15.724 17 16 C 17 16.138 17.0275 16.269047 17.078125 16.388672 C 17.179375 16.627922 17.372078 16.820625 17.611328 16.921875 C 17.730953 16.9725 17.862 17 18 17 C 18.552 17 19 16.552 19 16 C 19 15.448 18.552 15 18 15 z M 22 15 C 21.862 15 21.730953 15.0275 21.611328 15.078125 C 21.491703 15.12875 21.383469 15.202469 21.292969 15.292969 C 21.111969 15.473969 21 15.724 21 16 C 21 16.138 21.0275 16.269047 21.078125 16.388672 C 21.179375 16.627922 21.372078 16.820625 21.611328 16.921875 C 21.730953 16.9725 21.862 17 22 17 C 22.552 17 23 16.552 23 16 C 23 15.448 22.552 15 22 15 z M 26 15 C 25.586 15 25.23 15.252453 25.078125 15.611328 C 25.0275 15.730953 25 15.862 25 16 C 25 16.138 25.0275 16.269047 25.078125 16.388672 C 25.12875 16.508297 25.202469 16.616531 25.292969 16.707031 C 25.473969 16.888031 25.724 17 26 17 C 26.552 17 27 16.552 27 16 C 27 15.448 26.552 15 26 15 z M 30 15 C 29.862 15 29.730953 15.0275 29.611328 15.078125 C 29.372078 15.179375 29.179375 15.372078 29.078125 15.611328 C 29.0275 15.730953 29 15.862 29 16 C 29 16.138 29.0275 16.269047 29.078125 16.388672 C 29.23 16.747547 29.586 17 30 17 C 30.138 17 30.269047 16.9725 30.388672 16.921875 C 30.747547 16.77 31 16.414 31 16 C 31 15.448 30.552 15 30 15 z M 34 15 C 33.862 15 33.730953 15.0275 33.611328 15.078125 C 33.491703 15.12875 33.383469 15.202469 33.292969 15.292969 C 33.111969 15.473969 33 15.724 33 16 C 33 16.414 33.252453 16.77 33.611328 16.921875 C 33.730953 16.9725 33.862 17 34 17 C 34.552 17 35 16.552 35 16 C 35 15.448 34.552 15 34 15 z M 38 15 C 37.862 15 37.730953 15.0275 37.611328 15.078125 C 37.491703 15.12875 37.383469 15.202469 37.292969 15.292969 C 37.202469 15.383469 37.12875 15.491703 37.078125 15.611328 C 37.0275 15.730953 37 15.862 37 16 C 37 16.552 37.448 17 38 17 C 38.552 17 39 16.552 39 16 C 39 15.448 38.552 15 38 15 z M 42 15 C 41.862 15 41.730953 15.0275 41.611328 15.078125 C 41.252453 15.23 41 15.586 41 16 C 41 16.276 41.111969 16.526031 41.292969 16.707031 C 41.383469 16.797531 41.491703 16.87125 41.611328 16.921875 C 41.730953 16.9725 41.862 17 42 17 C 42.552 17 43 16.552 43 16 C 43 15.448 42.552 15 42 15 z M 46 15 C 45.724 15 45.473969 15.111969 45.292969 15.292969 C 45.111969 15.473969 45 15.724 45 16 C 45 16.138 45.0275 16.269047 45.078125 16.388672 C 45.23 16.747547 45.586 17 46 17 C 46.552 17 47 16.552 47 16 C 47 15.448 46.552 15 46 15 z M 50 15 C 49.586 15 49.23 15.252453 49.078125 15.611328 C 49.0275 15.730953 49 15.862 49 16 C 49 16.138 49.0275 16.269047 49.078125 16.388672 C 49.12875 16.508297 49.202469 16.616531 49.292969 16.707031 C 49.383469 16.797531 49.491703 16.87125 49.611328 16.921875 C 49.730953 16.9725 49.862 17 50 17 C 50.552 17 51 16.552 51 16 C 51 15.448 50.552 15 50 15 z M 54 15 C 53.862 15 53.730953 15.0275 53.611328 15.078125 C 53.491703 15.12875 53.383469 15.202469 53.292969 15.292969 C 53.111969 15.473969 53 15.724 53 16 C 53 16.276 53.111969 16.526031 53.292969 16.707031 C 53.473969 16.888031 53.724 17 54 17 C 54.138 17 54.269047 16.9725 54.388672 16.921875 C 54.747547 16.77 55 16.414 55 16 C 55 15.448 54.552 15 54 15 z M 58 15 C 57.724 15 57.473969 15.111969 57.292969 15.292969 C 57.202469 15.383469 57.12875 15.491703 57.078125 15.611328 C 57.0275 15.730953 57 15.862 57 16 C 57 16.138 57.0275 16.269047 57.078125 16.388672 C 57.12875 16.508297 57.202469 16.616531 57.292969 16.707031 C 57.473969 16.888031 57.724 17 58 17 C 58.552 17 59 16.552 59 16 C 59 15.448 58.552 15 58 15 z M 62 15 C 61.862 15 61.730953 15.0275 61.611328 15.078125 C 61.491703 15.12875 61.383469 15.202469 61.292969 15.292969 C 61.111969 15.473969 61 15.724 61 16 C 61 16.276 61.111969 16.526031 61.292969 16.707031 C 61.473969 16.888031 61.724 17 62 17 C 62.552 17 63 16.552 63 16 C 63 15.448 62.552 15 62 15 z M 24 23 L 36.943359 41.285156 L 24 57 L 27 57 L 38.330078 43.244141 L 48.066406 57 L 57 57 L 43.117188 37.429688 L 55 23 L 52 23 L 41.728516 35.472656 L 32.880859 23 L 24 23 z M 27.865234 25 L 31.847656 25 L 53.128906 55 L 49.101562 55 L 27.865234 25 z M 18 63 C 17.862 63 17.730953 63.0275 17.611328 63.078125 C 17.491703 63.12875 17.383469 63.202469 17.292969 63.292969 C 17.111969 63.473969 17 63.724 17 64 C 17 64.276 17.111969 64.526031 17.292969 64.707031 C 17.383469 64.797531 17.491703 64.87125 17.611328 64.921875 C 17.730953 64.9725 17.862 65 18 65 C 18.138 65 18.269047 64.9725 18.388672 64.921875 C 18.747547 64.77 19 64.414 19 64 C 19 63.448 18.552 63 18 63 z M 22 63 C 21.862 63 21.730953 63.0275 21.611328 63.078125 C 21.491703 63.12875 21.383469 63.202469 21.292969 63.292969 C 21.202469 63.383469 21.12875 63.491703 21.078125 63.611328 C 21.0275 63.730953 21 63.862 21 64 C 21 64.276 21.111969 64.526031 21.292969 64.707031 C 21.473969 64.888031 21.724 65 22 65 C 22.552 65 23 64.552 23 64 C 23 63.448 22.552 63 22 63 z M 26 63 C 25.724 63 25.473969 63.111969 25.292969 63.292969 C 25.202469 63.383469 25.12875 63.491703 25.078125 63.611328 C 25.0275 63.730953 25 63.862 25 64 C 25 64.276 25.111969 64.526031 25.292969 64.707031 C 25.383469 64.797531 25.491703 64.87125 25.611328 64.921875 C 25.730953 64.9725 25.862 65 26 65 C 26.552 65 27 64.552 27 64 C 27 63.448 26.552 63 26 63 z M 30 63 C 29.862 63 29.730953 63.0275 29.611328 63.078125 C 29.491703 63.12875 29.383469 63.202469 29.292969 63.292969 C 29.202469 63.383469 29.12875 63.491703 29.078125 63.611328 C 29.0275 63.730953 29 63.862 29 64 C 29 64.552 29.448 65 30 65 C 30.552 65 31 64.552 31 64 C 31 63.448 30.552 63 30 63 z M 34 63 C 33.862 63 33.730953 63.0275 33.611328 63.078125 C 33.372078 63.179375 33.179375 63.372078 33.078125 63.611328 C 33.0275 63.730953 33 63.862 33 64 C 33 64.276 33.111969 64.526031 33.292969 64.707031 C 33.473969 64.888031 33.724 65 34 65 C 34.552 65 35 64.552 35 64 C 35 63.448 34.552 63 34 63 z M 38 63 C 37.724 63 37.473969 63.111969 37.292969 63.292969 C 37.202469 63.383469 37.12875 63.491703 37.078125 63.611328 C 37.0275 63.730953 37 63.862 37 64 C 37 64.276 37.111969 64.526031 37.292969 64.707031 C 37.383469 64.797531 37.491703 64.87125 37.611328 64.921875 C 37.730953 64.9725 37.862 65 38 65 C 38.552 65 39 64.552 39 64 C 39 63.448 38.552 63 38 63 z M 42 63 C 41.724 63 41.473969 63.111969 41.292969 63.292969 C 41.202469 63.383469 41.12875 63.491703 41.078125 63.611328 C 41.0275 63.730953 41 63.862 41 64 C 41 64.138 41.0275 64.269047 41.078125 64.388672 C 41.12875 64.508297 41.202469 64.616531 41.292969 64.707031 C 41.473969 64.888031 41.724 65 42 65 C 42.138 65 42.269047 64.9725 42.388672 64.921875 C 42.747547 64.77 43 64.414 43 64 C 43 63.448 42.552 63 42 63 z M 46 63 C 45.862 63 45.730953 63.0275 45.611328 63.078125 C 45.491703 63.12875 45.383469 63.202469 45.292969 63.292969 C 45.111969 63.473969 45 63.724 45 64 C 45 64.276 45.111969 64.526031 45.292969 64.707031 C 45.473969 64.888031 45.724 65 46 65 C 46.138 65 46.269047 64.9725 46.388672 64.921875 C 46.747547 64.77 47 64.414 47 64 C 47 63.448 46.552 63 46 63 z M 50 63 C 49.862 63 49.730953 63.0275 49.611328 63.078125 C 49.491703 63.12875 49.383469 63.202469 49.292969 63.292969 C 49.111969 63.473969 49 63.724 49 64 C 49 64.138 49.0275 64.269047 49.078125 64.388672 C 49.23 64.747547 49.586 65 50 65 C 50.552 65 51 64.552 51 64 C 51 63.448 50.552 63 50 63 z M 54 63 C 53.862 63 53.730953 63.0275 53.611328 63.078125 C 53.491703 63.12875 53.383469 63.202469 53.292969 63.292969 C 53.202469 63.383469 53.12875 63.491703 53.078125 63.611328 C 53.0275 63.730953 53 63.862 53 64 C 53 64.552 53.448 65 54 65 C 54.552 65 55 64.552 55 64 C 55 63.448 54.552 63 54 63 z M 58 63 C 57.862 63 57.730953 63.0275 57.611328 63.078125 C 57.491703 63.12875 57.383469 63.202469 57.292969 63.292969 C 57.202469 63.383469 57.12875 63.491703 57.078125 63.611328 C 57.0275 63.730953 57 63.862 57 64 C 57 64.276 57.111969 64.526031 57.292969 64.707031 C 57.383469 64.797531 57.491703 64.87125 57.611328 64.921875 C 57.730953 64.9725 57.862 65 58 65 C 58.138 65 58.269047 64.9725 58.388672 64.921875 C 58.747547 64.77 59 64.414 59 64 C 59 63.448 58.552 63 58 63 z M 62 63 C 61.724 63 61.473969 63.111969 61.292969 63.292969 C 61.202469 63.383469 61.12875 63.491703 61.078125 63.611328 C 61.0275 63.730953 61 63.862 61 64 C 61 64.138 61.0275 64.269047 61.078125 64.388672 C 61.12875 64.508297 61.202469 64.616531 61.292969 64.707031 C 61.383469 64.797531 61.491703 64.87125 61.611328 64.921875 C 61.730953 64.9725 61.862 65 62 65 C 62.138 65 62.269047 64.9725 62.388672 64.921875 C 62.747547 64.77 63 64.414 63 64 C 63 63.448 62.552 63 62 63 z"/></svg>